<?xml version="1.0" standalone="no"?>
<!DOCTYPE svg PUBLIC "-//W3C//DTD SVG 20010904//EN"
 "http://www.w3.org/TR/2001/REC-SVG-20010904/DTD/svg10.dtd">
<svg version="1.0"  xmlns="http://www.w3.org/2000/svg"
 width="500.000000pt" height="500.000000pt" viewBox="0 0 500.000000 500.000000"
 preserveAspectRatio="xMidYMid meet">

<g transform="translate(0.000000,500.000000) scale(0.100000,-0.100000)"
fill="#ffffff" stroke="none">
<path d="M2222 4743 c-4 -10 -29 -103 -57 -207 l-50 -190 -70 -18 c-131 -35
-260 -81 -364 -129 -57 -27 -107 -49 -111 -49 -4 0 -50 31 -101 68 -52 37
-122 87 -157 111 l-62 44 -63 -49 c-34 -27 -131 -104 -215 -172 l-152 -123 90
-176 c78 -152 89 -178 78 -194 -192 -267 -309 -512 -368 -766 -6 -29 -17 -56
-23 -61 -13 -11 -328 -102 -351 -102 -8 0 -21 -7 -30 -15 -13 -13 -15 -54 -15
-258 1 -133 4 -251 8 -262 7 -17 40 -27 212 -65 164 -37 205 -49 207 -63 2
-11 -19 -44 -52 -81 -160 -182 -307 -429 -357 -601 -34 -114 -34 -297 0 -405
96 -310 360 -533 763 -644 31 -9 58 -16 60 -16 1 0 -38 42 -88 93 -128 133
-203 250 -263 415 -51 139 -66 230 -66 417 0 184 9 239 67 437 l31 108 181 71
c100 39 184 74 189 78 4 4 -2 33 -13 65 -52 153 -72 279 -72 461 1 179 18 284
72 446 63 189 140 324 282 495 222 267 544 453 888 515 122 22 393 16 519 -11
419 -89 744 -316 953 -666 18 -30 37 -54 43 -54 5 0 41 20 79 45 38 25 98 62
135 82 165 92 243 153 377 295 94 100 205 296 190 335 -4 9 -4 14 1 10 4 -4
13 18 19 50 44 204 -35 399 -214 536 -158 121 -376 183 -679 194 -106 4 -163
2 -163 -4 0 -6 50 -27 111 -47 94 -30 217 -84 303 -133 54 -31 146 -115 194
-178 132 -176 183 -377 147 -582 -23 -132 -104 -314 -139 -313 -6 1 -42 48
-79 105 l-68 103 17 34 c9 18 50 90 90 160 41 69 74 130 74 135 0 17 -430 363
-452 363 -3 0 -70 -52 -148 -115 -79 -63 -146 -115 -150 -115 -4 0 -42 17 -86
39 -96 46 -230 96 -343 127 -46 13 -86 26 -88 28 -3 3 -26 96 -52 208 l-47
203 -282 3 c-262 2 -283 1 -290 -15z"/>
<path d="M4696 3731 c-68 -107 -303 -336 -442 -431 -12 -8 -56 -40 -99 -70
-43 -30 -108 -75 -145 -100 -153 -102 -188 -125 -257 -172 -39 -26 -74 -48
-78 -48 -4 0 -20 -9 -36 -21 -16 -11 -33 -18 -37 -15 -5 3 -14 31 -22 63 -18
83 -56 185 -105 283 -45 89 -128 210 -145 210 -5 0 -28 -60 -50 -132 -64 -209
-83 -259 -100 -268 -8 -4 -267 -83 -575 -175 -308 -92 -661 -198 -784 -236
-123 -38 -228 -69 -235 -69 -38 -1 -38 -13 3 -219 23 -111 41 -206 41 -211 0
-6 -53 -10 -132 -10 -135 0 -165 -7 -155 -33 4 -10 29 -16 87 -20 45 -3 83 -7
85 -9 1 -1 4 -82 6 -178 l4 -175 -37 -3 c-34 -3 -38 -6 -38 -32 0 -26 4 -29
38 -32 l37 -3 3 -64 c3 -62 2 -66 -27 -89 -17 -13 -31 -30 -31 -38 0 -8 -4
-14 -9 -14 -26 0 -135 130 -206 246 -27 44 -50 81 -52 83 -4 6 -381 -145 -396
-159 -17 -15 80 -183 181 -312 l44 -57 -96 -154 c-52 -84 -98 -160 -101 -169
-4 -10 24 -39 92 -96 54 -44 145 -119 203 -167 58 -48 115 -91 127 -97 23 -11
21 -13 269 179 l54 42 83 -38 c117 -54 256 -105 374 -137 74 -20 104 -32 108
-45 3 -10 23 -94 44 -186 l38 -168 278 -3 c153 -1 283 2 287 6 5 5 28 86 52
181 24 95 48 177 53 182 5 5 52 21 104 35 108 29 240 80 353 136 l79 40 46
-33 c25 -18 95 -71 155 -116 61 -46 116 -82 123 -81 15 4 366 293 407 336 l28
30 -37 69 c-21 37 -62 111 -91 164 -30 52 -54 99 -54 103 0 4 20 34 45 67 140
181 257 404 334 634 l50 150 78 22 c43 13 134 37 203 56 l125 32 -2 264 c0
145 -5 267 -10 272 -5 5 -96 27 -203 49 -107 23 -199 45 -203 49 -5 5 -15 34
-23 66 -15 57 -15 58 9 84 86 95 213 295 257 406 39 99 72 261 68 342 l-3 65
-39 -61z m-1417 -972 c67 -50 119 -98 132 -121 21 -39 -143 -460 -235 -606
-15 -24 -26 -46 -23 -48 7 -7 61 24 162 91 53 36 99 65 101 65 2 0 4 -137 4
-303 0 -291 -1 -305 -20 -322 -24 -22 -25 -29 -4 -49 14 -15 14 -19 -5 -52
-22 -38 -16 -64 15 -64 10 0 14 -13 14 -44 l0 -45 -82 -55 c-99 -65 -269 -149
-280 -138 -7 7 -46 173 -183 777 -59 259 -92 404 -123 530 l-19 80 -64 5 -64
5 -3 66 c-2 45 1 69 10 76 7 5 110 40 228 77 118 37 247 78 285 91 39 13 76
24 84 24 8 1 39 -18 70 -40z m761 -364 c-36 -410 -197 -746 -489 -1020 -35
-33 -72 -66 -82 -73 -17 -12 -19 -10 -19 13 0 18 6 29 19 32 29 7 32 28 10 56
-20 27 -26 67 -9 67 14 0 13 33 -1 47 -10 10 -13 227 -9 644 0 6 34 32 195
153 195 147 236 181 227 192 -4 4 -1 4 6 0 7 -4 33 10 65 37 28 24 61 49 72
55 18 10 20 7 23 -31 2 -23 -2 -100 -8 -172z m-1632 113 l-3 -43 -67 -3 -67
-3 -12 -62 c-7 -34 -49 -206 -94 -382 l-81 -320 -99 0 -100 0 -3 178 -2 177
65 0 c62 0 65 1 65 24 0 13 -7 27 -16 30 -9 3 -71 6 -139 6 l-123 0 -7 106
c-4 61 -3 110 2 115 11 11 639 216 666 218 15 1 18 -6 15 -41z m2 -498 l0
-320 -110 0 c-60 0 -110 3 -110 8 0 4 36 146 80 317 44 170 80 311 80 312 0 2
14 3 30 3 l30 0 0 -320z m245 310 c9 -15 145 -593 145 -617 0 -10 -23 -13 -95
-13 l-95 0 -1 233 c-1 127 -3 266 -5 307 -2 41 -2 81 1 88 5 15 41 16 50 2z
m-816 -439 c-1 -92 -5 -174 -9 -181 -4 -6 -18 -10 -31 -8 -23 3 -24 7 -27 83
-4 133 3 125 -111 125 l-98 0 -7 46 c-3 26 -6 60 -6 75 l0 29 145 0 145 0 -1
-169z m-1 -316 c6 -91 42 -84 42 8 l0 47 91 0 c81 0 90 -2 85 -17 -3 -10 -32
-118 -66 -241 -77 -283 -74 -275 -103 -266 -42 13 -147 76 -141 85 3 5 28 9
55 9 l50 0 -3 132 -3 133 -37 24 c-37 24 -38 26 -38 83 l0 59 33 -3 c31 -3 32
-5 35 -53z m511 39 l61 -7 0 -320 0 -320 -67 7 c-69 7 -149 23 -260 52 -52 14
-63 21 -63 38 0 44 133 531 148 544 17 13 85 16 181 6z m481 -12 c0 -4 21 -95
46 -202 80 -342 83 -358 70 -368 -17 -15 -192 -53 -268 -59 l-68 -6 0 322 0
321 110 0 c61 0 110 -4 110 -8z"/>
</g>
</svg>
